
<!DOCTYPE svg PUBLIC "-//W3C//DTD SVG 1.1//EN" "http://www.w3.org/Graphics/SVG/1.1/DTD/svg11.dtd">
<svg width="800px" height="800px" viewBox="0 0 1024 1024" xmlns="http://www.w3.org/2000/svg">
   <circle cx="512" cy="512" r="512" style="fill:#f38020"/>
   <path d="M608.2 592.4c3.1-10.8 1.9-20.7-3.3-28.1-4.8-6.7-12.9-10.6-22.6-11.1l-184.7-2.4c-1.1 0-2.2-.6-2.8-1.5-.6-.9-.7-2.1-.4-3.3.6-1.8 2.4-3.2 4.3-3.3l186.4-2.4c22.1-1 46.1-18.9 54.5-40.8l10.6-27.8c.5-1.2.6-2.4.3-3.6-12-54.3-60.5-94.8-118.4-94.8-53.4 0-98.7 34.5-114.9 82.4-10.5-7.8-23.9-12-38.3-10.6-25.7 2.5-46.2 23.1-48.8 48.8-.6 6.6-.1 13.1 1.4 19.1-41.9 1.2-75.3 35.4-75.3 77.6 0 3.7.3 7.5.8 11.2.3 1.8 1.8 3.1 3.6 3.1h340.9c1.9 0 3.8-1.4 4.3-3.3l2.4-9.2zM667 473.7c-1.6 0-3.4 0-5.1.2-1.2 0-2.2.9-2.7 2.1l-7.2 25c-3.1 10.8-2 20.7 3.3 28.1 4.8 6.7 12.9 10.6 22.7 11.1l39.3 2.4c1.2 0 2.3.6 2.8 1.5.6.9.7 2.3.5 3.3-.6 1.8-2.4 3.2-4.4 3.3l-41 2.4c-22.2 1-46 18.9-54.5 40.8l-3 7.6c-.6 1.5.5 3 2.1 3h140.8c1.6 0 3.1-1 3.6-2.7 2.4-8.7 3.7-17.9 3.7-27.3 0-55.5-45.3-100.8-101-100.8" style="fill:#fff"/>
   
   <g id="SVGRepo_bgCarrier" stroke-width="0"/>

    <g id="SVGRepo_tracerCarrier" stroke-linecap="round" stroke-linejoin="round"/>

    <g id="SVGRepo_iconCarrier"> <style type="text/css">  .st0{fill:#E20074;}  </style> <g> <path class="st0" d="M256.016,0C158.797,0.031,80.094,78.781,80.063,175.953c0.063,14.297,3.031,28.641,7.563,43.797 c7.969,26.438,21.094,55.328,36.281,84.547c45.563,87.359,110.328,177.391,110.688,177.891L256.016,512l21.391-29.813 c0.25-0.313,37.969-52.844,76.016-116.266c19.016-31.766,38.141-66.25,52.828-98.859c7.344-16.313,13.578-32.172,18.156-47.313 c4.531-15.156,7.469-29.5,7.531-43.797C431.906,78.781,353.203,0.031,256.016,0z M373.938,204.594 c-6.344,21.156-18.25,47.906-32.594,75.359c-21.484,41.266-48.281,84.375-69.625,116.953c-5.719,8.719-10.969,16.609-15.703,23.594 c-14.891-22-35.594-53.594-55.844-87.75c-17.719-29.906-35.063-61.75-47.656-90.25c-6.297-14.188-11.391-27.547-14.781-39.094 c-3.422-11.5-5-21.281-4.953-27.453c0.016-34.109,13.75-64.734,36.078-87.156c22.391-22.328,53.016-36.063,87.156-36.094 c34.109,0.031,64.75,13.766,87.125,36.094c22.359,22.422,36.078,53.047,36.094,87.156 C379.281,182.344,377.594,192.563,373.938,204.594z"/> <path class="st0" d="M256.016,118.719c-31.594,0-57.219,25.641-57.219,57.234c0,31.609,25.625,57.219,57.219,57.219 c31.578,0,57.219-25.609,57.219-57.219C313.234,144.359,287.594,118.719,256.016,118.719z"/> </g> </g>

</svg>